<?xml version="1.0" standalone="no"?>
<!DOCTYPE svg PUBLIC "-//W3C//DTD SVG 20010904//EN"
 "http://www.w3.org/TR/2001/REC-SVG-20010904/DTD/svg10.dtd">
<svg version="1.0" xmlns="http://www.w3.org/2000/svg"
 width="700.000000pt" height="700.000000pt" viewBox="0 0 700.000000 700.000000"
 preserveAspectRatio="xMidYMid meet">
<metadata>
Created by potrace 1.11, written by Peter Selinger 2001-2013
</metadata>
<g transform="translate(0.000000,700.000000) scale(0.100000,-0.100000)"
fill="#000000" stroke="none">
<path d="M6347 6604 c-1 -2 -18 -6 -36 -9 -145 -25 -295 -144 -525 -415 -60
-71 -203 -279 -313 -455 -174 -280 -432 -772 -612 -1167 -12 -27 -27 -49 -34
-49 -6 -1 -21 -3 -33 -4 -170 -19 -358 -130 -466 -275 -68 -92 -118 -226 -128
-340 0 -8 -12 12 -26 45 -153 369 -420 618 -772 719 -77 22 -154 30 -272 30
-217 -2 -439 -72 -630 -200 -153 -102 -272 -101 -426 3 -122 83 -273 146 -431
178 -89 18 -262 26 -326 15 -23 -5 -60 -11 -82 -14 -66 -9 -195 -55 -277 -98
-278 -148 -484 -408 -597 -755 -64 -197 -88 -475 -56 -664 33 -200 78 -314
285 -729 123 -247 217 -446 343 -730 11 -25 76 -175 144 -335 201 -467 285
-634 384 -761 73 -94 93 -112 186 -166 32 -18 54 -22 144 -22 98 -1 109 1 164
29 71 36 116 97 144 193 34 116 39 171 46 507 5 273 13 474 21 525 2 19 6 46
8 60 9 60 29 119 51 146 19 23 30 29 65 29 56 0 82 -33 104 -129 26 -113 31
-203 41 -686 4 -228 7 -264 27 -380 12 -76 65 -196 99 -227 105 -94 298 -100
424 -13 132 92 244 272 429 693 53 120 96 220 96 222 0 2 11 28 24 57 14 29
45 100 69 158 113 268 225 508 411 880 139 279 193 404 226 525 l17 60 39 -5
c63 -6 234 -5 293 3 269 37 571 193 707 366 71 90 120 192 151 315 10 37 12
230 4 271 -5 22 -15 62 -22 88 -9 32 -10 50 -3 55 12 8 228 268 335 402 651
821 973 1412 946 1740 -15 180 -139 304 -314 315 -23 1 -44 1 -46 -1z m121
-212 c130 -93 30 -440 -262 -907 -66 -106 -277 -415 -313 -460 -5 -5 -54 -71
-111 -145 -56 -74 -110 -145 -119 -156 l-18 -22 -185 124 c-102 68 -189 125
-194 127 -10 3 89 198 202 397 36 63 73 129 82 146 156 276 375 580 535 740
88 88 125 118 185 148 62 31 83 37 121 33 26 -2 60 -14 77 -25z m-1113 -1718
c174 -116 174 -117 157 -138 -9 -12 -57 -70 -106 -129 l-89 -107 -53 49 c-57
52 -134 100 -196 122 l-36 12 24 56 c43 96 117 251 121 251 2 0 82 -52 178
-116z m-3810 -140 c153 -15 317 -78 470 -179 105 -69 268 -145 365 -171 160
-42 402 -54 575 -29 95 14 244 48 292 66 l22 8 -22 66 c-19 57 -24 66 -42 61
-11 -2 -54 -14 -95 -25 -124 -33 -219 -45 -350 -45 -100 0 -238 11 -253 21
-11 7 87 74 176 119 111 57 208 88 333 109 49 8 225 9 250 2 11 -3 35 -8 55
-11 125 -19 316 -120 437 -231 237 -220 377 -552 387 -920 7 -264 -37 -398
-310 -943 -80 -160 -145 -293 -145 -295 0 -3 -22 -51 -49 -108 -54 -115 -95
-207 -278 -634 -126 -293 -245 -547 -292 -620 -55 -87 -133 -175 -179 -202
-38 -23 -59 -28 -114 -28 -104 0 -145 40 -172 170 -22 105 -26 173 -31 499 -9
530 -33 675 -131 770 -42 41 -85 56 -160 56 -138 0 -214 -91 -250 -295 -20
-119 -24 -192 -29 -500 -5 -332 -9 -402 -31 -540 -16 -97 -71 -154 -158 -162
-137 -13 -246 96 -394 396 -73 148 -69 138 -247 551 -157 364 -194 448 -297
670 -17 36 -91 185 -164 333 -240 480 -285 621 -279 882 12 526 301 979 717
1121 77 26 98 31 200 42 64 8 84 7 193 -4z m3395 -219 c186 -30 326 -204 334
-412 11 -285 -196 -524 -548 -632 -100 -31 -211 -46 -317 -42 l-26 1 15 53
c17 62 24 240 11 317 -37 227 -31 330 26 445 73 151 211 251 375 274 30 4 62
7 70 5 8 -1 35 -5 60 -9z"/>
<path d="M1360 4385 c-279 -58 -513 -244 -649 -513 -59 -117 -110 -296 -127
-447 -4 -27 -7 -60 -9 -72 -2 -21 2 -23 49 -24 28 0 59 -2 68 -4 23 -4 27 3
32 61 25 298 161 573 351 714 109 80 273 147 374 152 43 3 51 6 52 23 0 11 2
43 2 70 l2 50 -45 1 c-25 0 -70 -5 -100 -11z"/>
<path d="M3860 3310 c0 -40 -32 -176 -61 -265 -40 -119 -133 -306 -214 -430
l-64 -100 32 -27 c17 -15 44 -34 58 -42 l26 -15 61 92 c149 228 274 524 297
708 14 111 22 99 -61 99 -68 0 -74 -2 -74 -20z"/>
<path d="M577 3181 c-2 -3 -3 -35 -3 -71 l1 -65 71 -2 71 -2 -1 72 -1 71 -68
2 c-37 1 -69 -1 -70 -5z"/>
</g>
</svg>
