<?xml version="1.0" encoding="UTF-8" standalone="no"?><!DOCTYPE svg PUBLIC "-//W3C//DTD SVG 1.1//EN" "http://www.w3.org/Graphics/SVG/1.1/DTD/svg11.dtd"><svg width="100%" height="100%" viewBox="0 0 2134 2134" version="1.1" xmlns="http://www.w3.org/2000/svg" xmlns:xlink="http://www.w3.org/1999/xlink" xml:space="preserve" xmlns:serif="http://www.serif.com/" style="fill-rule:evenodd;clip-rule:evenodd;stroke-linejoin:round;stroke-miterlimit:2;"><g id="outline"><path d="M177.361,1390.7c62.235,122.029 109.434,232.618 147.35,321.547c79.908,187.38 128.131,300.475 220.721,300.475c98.211,0 108.954,-76.769 108.954,-239.7c0,-201.523 19.743,-217.909 43.582,-217.909c23.839,0 43.582,16.386 43.582,217.909c0,162.931 10.743,239.7 108.955,239.7c92.589,0 140.812,-113.095 220.72,-300.475c37.916,-88.929 85.115,-199.583 147.35,-321.547l7.3,-14.295c38.657,-75.113 82.239,-160.272 82.239,-257.111c0,-232.16 -153.147,-414.027 -348.655,-414.027c-75.353,0.859 -148.578,25.295 -209.345,69.862c-31.683,20.467 -72.609,20.467 -104.292,0c-60.767,-44.567 -133.992,-69.003 -209.345,-69.862c-195.508,0 -348.655,181.867 -348.655,414.027c0,96.839 43.691,181.998 82.239,257.133l7.3,14.273Zm259.116,-641.851c65.814,0.711 129.783,22.006 182.891,60.883c64.331,42.442 140.145,64.174 217.19,62.257c54.426,-0.314 108.442,-9.447 159.946,-27.042l-13.794,-41.403c-71.821,25.496 -149.157,31.386 -224.011,17.062c6.295,-3.033 12.273,-6.683 17.847,-10.895c53.117,-38.874 117.094,-60.162 182.913,-60.862c171.081,0 305.073,162.712 305.073,370.445c0,86.314 -41.141,166.483 -77.423,237.216l-7.366,14.36c-62.91,123.337 -110.414,234.754 -148.592,324.271c-70.363,165.044 -116.843,273.999 -180.646,273.999c-47.439,0 -65.373,-16.91 -65.373,-196.118c0,-184.395 -12.116,-261.491 -87.164,-261.491c-75.048,0 -87.164,77.096 -87.164,261.491c0,179.208 -17.934,196.118 -65.372,196.118c-63.804,0 -110.284,-108.955 -180.647,-273.999c-38.178,-89.517 -85.682,-200.934 -148.592,-324.271l-7.366,-14.36c-36.282,-70.733 -77.423,-150.902 -77.423,-237.216c0,-207.733 133.993,-370.445 305.073,-370.445Z" style="fill:#fff;fill-rule:nonzero;"/><path d="M458.268,836.017l0,-43.581c-89.931,0 -264.847,67.987 -283.282,325.316l43.582,3.094c19.96,-280.209 230.809,-284.829 239.7,-284.829Z" style="fill:#fff;fill-rule:nonzero;"/><rect x="174.986" y="1162.88" width="43.582" height="43.582" style="fill:#fff;"/><path d="M1220.95,1119.3l-43.582,0c0,1.024 -2.07,104.945 -104.901,248.918l35.475,25.321c111.722,-156.568 113.008,-269.51 113.008,-274.239Z" style="fill:#fff;fill-rule:nonzero;"/><path d="M1912.86,125.95c-46.168,14.484 -96.579,57.341 -154.116,131.017c-104.093,133.295 -214.969,349.546 -283.54,502.877c-72.023,3.205 -139.588,47.923 -172.167,111.185c-59.797,116.12 25.166,191.823 -34.217,286.599c-10.341,16.502 -1.061,38.312 18.02,42.286c134.086,27.926 285.206,-36.853 343.463,-129.832c35.604,-56.823 46.001,-132.199 20.259,-195.986c111.779,-128.188 262.943,-321.521 340.228,-472.203c42.797,-83.44 60.207,-147.126 53.225,-194.695c-9.404,-64.085 -68.071,-101.033 -131.155,-81.248Zm-330.013,914.392c-39.412,62.899 -143.981,116.01 -247.86,109.618c37.37,-99.039 -25.921,-168.309 17.839,-253.286c35.908,-69.73 129.112,-106.036 196.575,-61.234c78.821,52.351 67.009,151.335 33.446,204.902Zm-49.361,-273.496c9.701,-21.321 25.007,-54.307 44.421,-94.018l108.249,71.893c-27.661,33.972 -50.946,61.438 -66.085,79.032c-22.045,-25.79 -52.341,-46.773 -86.585,-56.907Zm455.12,-551.518c17.11,116.534 -194.501,393.53 -267.257,485.537l-118.289,-78.562c53.749,-105.996 213.443,-407.43 326.567,-442.915c30.18,-9.472 54.563,5.856 58.979,35.94Z" style="fill:#fff;fill-rule:nonzero;"/></g></svg>
